<?xml version="1.0" encoding="UTF-8"?>
<!DOCTYPE svg PUBLIC "-//W3C//DTD SVG 1.1//EN" "http://www.w3.org/Graphics/SVG/1.1/DTD/svg11.dtd">
<svg id="Layer_1" xmlns="http://www.w3.org/2000/svg" viewBox="0 0 500 405"><defs><style>.cls-1{fill:#231f20;}.cls-2{fill:#18af94;stroke:#231f20;stroke-miterlimit:10;}</style></defs><ellipse class="cls-2" cx="249.5" cy="202" rx="225" ry="157.5"/><g><path class="cls-1" d="M76.7,238v-86.4h57.6v14.4h-43.2v14.4h43.2v14.4h-43.2v28.8h43.2v14.4h-57.6Zm57.6-72h14.4v14.4h-14.4v-14.4Zm14.4,57.6h-14.4v-28.8h14.4v28.8Z"/><path class="cls-1" d="M163.1,238v-86.4h72v14.4h-57.6v14.4h43.2v14.4h-43.2v28.8h57.6v14.4h-72Z"/><path class="cls-1" d="M292.7,238h-14.4v-72h-28.8v-14.4h72v14.4h-28.8v72Z"/><path class="cls-1" d="M350.3,238h-14.4v-72h14.4v28.8h43.2v-28.8h14.4v72h-14.4v-28.8h-43.2v28.8Zm0-72v-14.4h43.2v14.4h-43.2Z"/></g></svg>